<svg id="celery" xmlns="http://www.w3.org/2000/svg" xmlns:xlink="http://www.w3.org/1999/xlink" viewBox="0 0 73.75 73.75"><defs><style>.cls-1{fill:#e5adb3;}.cls-1,.cls-10,.cls-11,.cls-3,.cls-4,.cls-5,.cls-6,.cls-7,.cls-8,.cls-9{stroke:#000;stroke-miterlimit:10;}.cls-2{fill:#73574d;}.cls-3{fill:url(#Unbenannter_Verlauf_271);}.cls-4{fill:none;}.cls-5{fill:url(#Unbenannter_Verlauf_271-2);}.cls-6{fill:url(#Unbenannter_Verlauf_271-3);}.cls-7{fill:url(#Unbenannter_Verlauf_271-4);}.cls-8{fill:url(#Unbenannter_Verlauf_271-5);}.cls-9{fill:url(#Unbenannter_Verlauf_271-6);}.cls-10{fill:url(#Unbenannter_Verlauf_271-7);}.cls-11{fill:url(#Unbenannter_Verlauf_271-8);}</style><linearGradient id="Unbenannter_Verlauf_271" x1="25.36" y1="231.65" x2="17.39" y2="274.19" gradientTransform="translate(59.53 47.76) rotate(9.44)" gradientUnits="userSpaceOnUse"><stop offset="0" stop-color="#ceff55"/><stop offset="0" stop-color="#cdfe54"/><stop offset="0.19" stop-color="#9bcb3b"/><stop offset="0.37" stop-color="#72a026"/><stop offset="0.54" stop-color="#528015"/><stop offset="0.71" stop-color="#3c680a"/><stop offset="0.87" stop-color="#2e5a02"/><stop offset="1" stop-color="#295500"/></linearGradient><linearGradient id="Unbenannter_Verlauf_271-2" x1="23.87" y1="231.37" x2="15.89" y2="273.91" xlink:href="#Unbenannter_Verlauf_271"/><linearGradient id="Unbenannter_Verlauf_271-3" x1="30.16" y1="232.55" x2="22.18" y2="275.09" xlink:href="#Unbenannter_Verlauf_271"/><linearGradient id="Unbenannter_Verlauf_271-4" x1="25.66" y1="231.71" x2="17.68" y2="274.25" xlink:href="#Unbenannter_Verlauf_271"/><linearGradient id="Unbenannter_Verlauf_271-5" x1="-42.99" y1="159.83" x2="-50.97" y2="202.37" gradientTransform="matrix(0.9, 0.44, -0.44, 0.9, 164.48, 159.69)" xlink:href="#Unbenannter_Verlauf_271"/><linearGradient id="Unbenannter_Verlauf_271-6" x1="-44.49" y1="154.03" x2="-52.47" y2="196.57" gradientTransform="matrix(0.9, 0.44, -0.4, 0.81, 154.96, 179.05)" xlink:href="#Unbenannter_Verlauf_271"/><linearGradient id="Unbenannter_Verlauf_271-7" x1="-38.2" y1="160.73" x2="-46.17" y2="203.27" gradientTransform="matrix(0.9, 0.44, -0.44, 0.9, 164.48, 159.69)" xlink:href="#Unbenannter_Verlauf_271"/><linearGradient id="Unbenannter_Verlauf_271-8" x1="-42.7" y1="159.89" x2="-50.67" y2="202.43" gradientTransform="matrix(0.9, 0.44, -0.44, 0.9, 164.48, 159.69)" xlink:href="#Unbenannter_Verlauf_271"/></defs><title>celery</title><circle class="cls-1" cx="36.88" cy="36.88" r="36.38"/><path class="cls-2" d="M33.42,322.24,38.51,334a35.52,35.52,0,0,0,35-14.49L50.43,268Z" transform="translate(-7.85 -261.2)"/><path class="cls-3" d="M48.51,283.57l-1,6-.08,0c-.46,0-.69,1.23-.79,1.51a9.93,9.93,0,0,1-.74,2.15c-.28.45-.45.52-.8.22s-.77-.52-1.17.08a7.63,7.63,0,0,0-.6,2,1.27,1.27,0,0,1-.06.18c-.16.4-.42.51-.72.43a1.29,1.29,0,0,1-.36-.17c-.18-.11-.33-.22-.47-.29l.94-16.3c.35-.07.48-1.39.88-1.34s.39.23.47.5a6.33,6.33,0,0,0,.29,1.18.81.81,0,0,0,.76.56c.4,0,.63-.55,1-.51s.36.28.35.57c0,.45-.18,1.12.17,1.49s.69,0,1,.22a.6.6,0,0,1,.12.11c.24.37,0,.81.47,1.1A.78.78,0,0,1,48.51,283.57Z" transform="translate(-7.85 -261.2)"/><path class="cls-4" d="M50.46,269.77l0,.13s0-.1-.09-.16Z" transform="translate(-7.85 -261.2)"/><path class="cls-5" d="M50.43,269.9l-.07.35L47.59,282c-.28-.2-.69.06-1-.22s-.19-1-.17-1.49c0-.29,0-.54-.35-.57s-.64.51-1,.51a.81.81,0,0,1-.76-.56l1.84-10.59,0,0c-.29-1.42.76-.46.8-1.11,0-.37,1-1.44,1.26,0,.12.69.63.75.77.31.24-.7,1.55-.42,1,.6-.17.07.14.46.36.82C50.38,269.8,50.4,269.85,50.43,269.9Z" transform="translate(-7.85 -261.2)"/><path class="cls-4" d="M50.53,270.3l-.17-.05.07-.35A.52.52,0,0,1,50.53,270.3Z" transform="translate(-7.85 -261.2)"/><path class="cls-6" d="M50.15,289.53a4.1,4.1,0,0,1-.93,1.32c-.25.29-.58,1.2-.82,1.48,0,0-.26,19.95-4.9,23.91-1,.86-4.45.19-5.25-.88-2.57-3.44,2.1-17.06,2.1-17.06a1.77,1.77,0,0,1,0-.21c0-.92-.26-2.64.6-2.64a1.38,1.38,0,0,1,.74.22c.14.07.29.18.47.29a1.29,1.29,0,0,0,.36.17c.3.08.56,0,.72-.43a1.27,1.27,0,0,0,.06-.18,7.63,7.63,0,0,1,.6-2c.4-.6.7-.49,1.17-.08s.52.23.8-.22a9.93,9.93,0,0,0,.74-2.15c.1-.28.33-1.5.79-1.51l.08,0c.26.15.47,1,.52,1.2.35.15.48-.3.57-.57a3.07,3.07,0,0,1,.75-1.58C50,288,50.32,288.94,50.15,289.53Z" transform="translate(-7.85 -261.2)"/><path class="cls-7" d="M40.35,298.3a.84.84,0,0,1-.05.17" transform="translate(-7.85 -261.2)"/><path class="cls-8" d="M51.91,293.68l-2.7,5.48a.18.18,0,0,0-.07-.05c-.44-.13-1,1-1.19,1.22a9.76,9.76,0,0,1-1.33,1.85c-.4.35-.58.37-.83,0s-.58-.73-1.15-.26a7.63,7.63,0,0,0-1.14,1.73l-.11.15a.56.56,0,0,1-.81.2,1,1,0,0,1-.3-.26l-.36-.42L47.51,288c.35,0,.86-1.2,1.23-1s.31.34.3.61a6,6,0,0,0,0,1.22.79.79,0,0,0,.56.75c.38.12.76-.34,1.14-.19s.26.37.17.65-.49,1-.26,1.47.65.23.86.5a.37.37,0,0,1,.08.14c.13.42-.2.77.14,1.18A.87.87,0,0,1,51.91,293.68Z" transform="translate(-7.85 -261.2)"/><path class="cls-4" d="M57.64,281" transform="translate(-7.85 -261.2)"/><path class="cls-9" d="M57.14,282.24l-.15.29L51.46,292c-.22-.26-.67-.16-.87-.49s.07-1,.2-1.34.13-.48-.18-.61-.74.25-1.12.13a.83.83,0,0,1-.58-.72l4.34-8.66,0,0c.07-1.33.83-.18,1-.73.12-.31,1.3-1,1.19.4-.06.63.42.84.65.49.4-.53,1.58.11.86.85-.18,0,0,.44.14.82A1.09,1.09,0,0,1,57.14,282.24Z" transform="translate(-7.85 -261.2)"/><path class="cls-10" d="M51.75,299.85a4,4,0,0,1-1.27,1c-.32.21-.9,1-1.2,1.18,0,0-6,19-11.59,21.48-1.21.54-4.31-1.09-4.77-2.34-1.47-4,6.93-15.74,6.93-15.74s0-.13.08-.19c.31-.87.52-2.61,1.34-2.36a1.56,1.56,0,0,1,.65.42l.36.42a1,1,0,0,0,.3.26.56.56,0,0,0,.81-.2l.11-.15a7.63,7.63,0,0,1,1.14-1.73c.57-.47.82-.27,1.15.26s.43.37.83,0A9.76,9.76,0,0,0,48,300.33c.17-.24.75-1.35,1.19-1.22a.18.18,0,0,1,.07.05c.21.21.17,1.07.16,1.29.29.25.54-.15.71-.38.37-.55.55-1,1.17-1.3C52,298.38,52.09,299.34,51.75,299.85Z" transform="translate(-7.85 -261.2)"/><path class="cls-11" d="M39.85,305.43l-.09.15" transform="translate(-7.85 -261.2)"/></svg>