<svg id="crustaceans" xmlns="http://www.w3.org/2000/svg" xmlns:xlink="http://www.w3.org/1999/xlink" viewBox="0 0 73.75 73.75"><defs><style>.cls-1{fill:#819dba;}.cls-1,.cls-3,.cls-5,.cls-6{stroke:#000;stroke-miterlimit:10;}.cls-2{fill:#556d85;}.cls-3{fill:url(#Unbenannter_Verlauf_725);}.cls-4,.cls-5{fill:#ff9f7f;}</style><linearGradient id="Unbenannter_Verlauf_725" x1="119.16" y1="344.72" x2="145.49" y2="390.06" gradientUnits="userSpaceOnUse"><stop offset="0" stop-color="#a5a394"/><stop offset="1" stop-color="#ff8f7b"/></linearGradient></defs><title>crustaceans</title><circle class="cls-1" cx="36.88" cy="36.88" r="36.38"/><path class="cls-2" d="M123,397.22l9.72,21.54a35.39,35.39,0,0,0,42-20.48l-10.33-23.07-43.12,1.27,8.26,18.43Z" transform="translate(-104.9 -347.19)"/><path class="cls-3" d="M121.47,376c8.56-6.29,14.61-12.74,21.58-8.94,0,0,5.64-3.57,12.24,1.74,3.19,2.56,9.64,1.6,9.11,11.4,1.8,5.84,1.65,7.64-.52,11.7-3.54,6.61-8.7,10.58-15.79,9.81-2.86-.31-6.06,1.81-10.17-1-6.73-4.67-16.21-1.91-15.11-3.23,2.07-2.48,8.17-1.36,8.78-3.13.27-.78-.75-4.83.59-7.46,2.18-4.29,2.58,7.08,7.8,8.11,10.15,2,13.57-1.8,12.72-4.14-.46-1.25-3.65-1.52-4.09-1.17a11.27,11.27,0,0,1,5.15-.07c3.32-4.28-4.43-5.16-6.84-2.84.47-1.88,7.43-.25,5.43-4-1-1.92-6.5-1.47-7.46-.09,1.63-.93,4-1,5.75-1.53-.57-2.61-8-2.7-9.15-2C136,382.78,118.5,378.16,121.47,376Z" transform="translate(-104.9 -347.19)"/><path class="cls-4" d="M143.05,367c1,1.85.42,6.34.06,11.38" transform="translate(-104.9 -347.19)"/><path d="M143.49,366.81a7.71,7.71,0,0,1,.68,3c.06,1,.06,2,0,2.93-.05,1.93-.16,3.84-.24,5.74l-1.73-.12c.2-1.91.43-3.81.6-5.69.08-.95.14-1.89.14-2.81a6.69,6.69,0,0,0-.38-2.59Z" transform="translate(-104.9 -347.19)"/><path class="cls-4" d="M156.62,369.53c1.18,5.09-1.11,7.93-6.49,10.71" transform="translate(-104.9 -347.19)"/><path d="M157.1,369.42a10.61,10.61,0,0,1,.4,3.62,7.5,7.5,0,0,1-1.29,3.54,11.61,11.61,0,0,1-2.58,2.65,27.15,27.15,0,0,1-3,2l-1-1.92a15,15,0,0,0,5.3-3.64,6,6,0,0,0,1.28-2.77,9.21,9.21,0,0,0-.09-3.22Z" transform="translate(-104.9 -347.19)"/><path class="cls-4" d="M164.38,379.23c-1.54,4.81-8.6,6-11.8,5.2" transform="translate(-104.9 -347.19)"/><path d="M164.86,379.38a7,7,0,0,1-2,3.19,10.26,10.26,0,0,1-3.16,2,14.65,14.65,0,0,1-3.57,1,12,12,0,0,1-3.83,0l.53-2.11a9.84,9.84,0,0,0,3.11.27,13.05,13.05,0,0,0,3.21-.58A9.35,9.35,0,0,0,162,381.6a5.79,5.79,0,0,0,1.88-2.52Z" transform="translate(-104.9 -347.19)"/><path class="cls-4" d="M164,391.7c-2.87,4.21-10.78-1.23-11.3-2" transform="translate(-104.9 -347.19)"/><path d="M164.41,392a4.19,4.19,0,0,1-3,1.88,8.58,8.58,0,0,1-3.44-.32,16.81,16.81,0,0,1-3.11-1.24c-.5-.25-1-.53-1.46-.83a8,8,0,0,1-.71-.48,3.65,3.65,0,0,1-.83-.75l1.69-1.12s.18.19.35.32.37.31.58.46a13.72,13.72,0,0,0,1.25.85,15.13,15.13,0,0,0,2.7,1.35,7.33,7.33,0,0,0,2.84.51,3.06,3.06,0,0,0,2.33-1.2Z" transform="translate(-104.9 -347.19)"/><path class="cls-5" d="M132.9,397.64" transform="translate(-104.9 -347.19)"/><path class="cls-4" d="M148.09,401.69c-2.91-1.29-2.58-3.89-1.7-6.09" transform="translate(-104.9 -347.19)"/><path d="M147.89,402.14a5,5,0,0,1-1.71-1.05,3.88,3.88,0,0,1-1.05-1.86,7.37,7.37,0,0,1,.38-4l1.77.71a5.7,5.7,0,0,0-.72,3,2.91,2.91,0,0,0,1.74,2.27Z" transform="translate(-104.9 -347.19)"/><ellipse class="cls-6" cx="131.17" cy="372.27" rx="1.74" ry="0.93" transform="translate(-213.69 -288.31) rotate(-18.03)"/><path class="cls-4" d="M136.22,399.79c-1.63-2.74,0-4.67,1.7-5.89" transform="translate(-104.9 -347.19)"/><path d="M135.79,400.05a5.46,5.46,0,0,1-.79-1.75,4,4,0,0,1,0-2,6.49,6.49,0,0,1,2.33-3.14l1.09,1.55a5,5,0,0,0-2.05,2.06,3.25,3.25,0,0,0,.24,2.81Z" transform="translate(-104.9 -347.19)"/></svg>