<svg id="egg" xmlns="http://www.w3.org/2000/svg" xmlns:xlink="http://www.w3.org/1999/xlink" viewBox="0 0 73.75 73.75"><defs><style>.cls-1{fill:#ffe57d;}.cls-1,.cls-3,.cls-4,.cls-5,.cls-6{stroke:#000;stroke-miterlimit:10;}.cls-2{fill:#807b46;}.cls-3{fill:url(#Unbenannter_Verlauf_706);}.cls-4{fill:url(#Unbenannter_Verlauf_706-2);}.cls-5{fill:#fff;}.cls-6{fill:gold;}</style><linearGradient id="Unbenannter_Verlauf_706" x1="41.48" y1="404.77" x2="30.98" y2="374.27" gradientUnits="userSpaceOnUse"><stop offset="0" stop-color="#a5a394"/><stop offset="1" stop-color="#fff"/></linearGradient><linearGradient id="Unbenannter_Verlauf_706-2" x1="42.02" y1="404.58" x2="31.52" y2="374.08" xlink:href="#Unbenannter_Verlauf_706"/></defs><title>egg</title><circle class="cls-1" cx="36.88" cy="36.88" r="36.38"/><path class="cls-2" d="M24.87,396.83,34.9,419c18,5.84,35.44-4.48,41.82-17.21L67,380.17l-15,7-5.43-12.12Z" transform="translate(-8.33 -347.79)"/><path class="cls-3" d="M47.84,385.83c0,10.71-5.89,14-13.16,14s-13.16-3.27-13.16-14,5.89-22.45,13.16-22.45S47.84,375.12,47.84,385.83Z" transform="translate(-8.33 -347.79)"/><path class="cls-4" d="M47.84,385.83c0,2.6-6.53,6-6.53,6l-6.63-14.93-5.35,12.26-.66-2.83-1.47,3-1.34-7.77s-4.34,6.53-4.34,4.23c0-10.71,5.89-22.45,13.16-22.45S47.84,375.12,47.84,385.83Z" transform="translate(-8.33 -347.79)"/><path class="cls-5" d="M65.37,397.62c-3.68,9.59-10.08,10.49-16.59,8s-10.66-7.45-7-17,13-18.08,19.49-15.58S69.05,388,65.37,397.62Z" transform="translate(-8.33 -347.79)"/><circle class="cls-6" cx="44.61" cy="47" r="8.6"/></svg>