<svg id="fish" xmlns="http://www.w3.org/2000/svg" xmlns:xlink="http://www.w3.org/1999/xlink" viewBox="0 0 73.75 73.75"><defs><style>.cls-1{fill:#64789e;}.cls-1,.cls-3,.cls-5{stroke:#000;stroke-miterlimit:10;}.cls-2{fill:#263b5f;}.cls-3{fill:#f7be29;}.cls-4{fill:url(#Unbenannter_Verlauf_9);}.cls-5{fill:none;}.cls-6{fill:url(#Unbenannter_Verlauf_731);}.cls-7{fill:url(#Unbenannter_Verlauf_731-2);}.cls-8{fill:url(#Unbenannter_Verlauf_731-3);}.cls-9{fill:url(#Unbenannter_Verlauf_731-4);}.cls-10{fill:url(#Unbenannter_Verlauf_731-5);}.cls-11{fill:url(#Unbenannter_Verlauf_731-6);}.cls-12{fill:url(#Unbenannter_Verlauf_731-7);}.cls-13{fill:url(#Unbenannter_Verlauf_731-8);}.cls-14{fill:url(#Unbenannter_Verlauf_731-9);}.cls-15{fill:url(#Unbenannter_Verlauf_731-10);}.cls-16{fill:url(#Unbenannter_Verlauf_731-11);}.cls-17{fill:url(#Unbenannter_Verlauf_731-12);}.cls-18{fill:url(#Unbenannter_Verlauf_731-13);}</style><linearGradient id="Unbenannter_Verlauf_9" x1="25.74" y1="7" x2="56.08" y2="48.67" gradientUnits="userSpaceOnUse"><stop offset="0" stop-color="#f7be29"/><stop offset="0" stop-color="#fff"/><stop offset="1" stop-color="#f7be29"/></linearGradient><linearGradient id="Unbenannter_Verlauf_731" x1="49.04" y1="138.84" x2="55.76" y2="138.84" gradientTransform="translate(-101.96 80.42) rotate(-90)" gradientUnits="userSpaceOnUse"><stop offset="0" stop-color="#f7be29"/><stop offset="0" stop-color="#fff"/><stop offset="0.08" stop-color="#fef4da"/><stop offset="0.2" stop-color="#fce6ab"/><stop offset="0.32" stop-color="#fad983"/><stop offset="0.44" stop-color="#f9cf62"/><stop offset="0.57" stop-color="#f8c849"/><stop offset="0.7" stop-color="#f8c237"/><stop offset="0.84" stop-color="#f7bf2c"/><stop offset="1" stop-color="#f7be29"/></linearGradient><linearGradient id="Unbenannter_Verlauf_731-2" x1="49.04" y1="135.75" x2="55.76" y2="135.75" gradientTransform="translate(-99.9 83.33) rotate(-90)" xlink:href="#Unbenannter_Verlauf_731"/><linearGradient id="Unbenannter_Verlauf_731-3" x1="46.91" y1="132.84" x2="53.63" y2="132.84" gradientTransform="translate(-95.96 84.65) rotate(-90)" xlink:href="#Unbenannter_Verlauf_731"/><linearGradient id="Unbenannter_Verlauf_731-4" x1="43.3" y1="130.4" x2="50.02" y2="130.4" gradientTransform="translate(-90.93 84.56) rotate(-90)" xlink:href="#Unbenannter_Verlauf_731"/><linearGradient id="Unbenannter_Verlauf_731-5" x1="45.66" y1="138.91" x2="52.38" y2="138.91" gradientTransform="translate(-98.81 78.11) rotate(-90)" xlink:href="#Unbenannter_Verlauf_731"/><linearGradient id="Unbenannter_Verlauf_731-6" x1="43.87" y1="135.75" x2="50.59" y2="135.75" gradientTransform="translate(-95.03 79.89) rotate(-90)" xlink:href="#Unbenannter_Verlauf_731"/><linearGradient id="Unbenannter_Verlauf_731-7" x1="42.62" y1="133.06" x2="49.33" y2="133.06" gradientTransform="translate(-92.06 81.59) rotate(-90)" xlink:href="#Unbenannter_Verlauf_731"/><linearGradient id="Unbenannter_Verlauf_731-8" x1="41.32" y1="137.63" x2="48.04" y2="137.63" gradientTransform="translate(-93.88 76.42) rotate(-90)" xlink:href="#Unbenannter_Verlauf_731"/><linearGradient id="Unbenannter_Verlauf_731-9" x1="38.15" y1="131.42" x2="44.87" y2="131.42" gradientTransform="translate(-86.76 80.17) rotate(-90)" xlink:href="#Unbenannter_Verlauf_731"/><linearGradient id="Unbenannter_Verlauf_731-10" x1="34.5" y1="133.06" x2="41.21" y2="133.06" gradientTransform="translate(-84.4 76.19) rotate(-90)" xlink:href="#Unbenannter_Verlauf_731"/><linearGradient id="Unbenannter_Verlauf_731-11" x1="37.84" y1="136.24" x2="44.55" y2="136.24" gradientTransform="translate(-89.67 75.42) rotate(-90)" xlink:href="#Unbenannter_Verlauf_731"/><linearGradient id="Unbenannter_Verlauf_731-12" x1="38.46" y1="133.89" x2="45.17" y2="133.89" gradientTransform="translate(-88.69 78.04) rotate(-90)" xlink:href="#Unbenannter_Verlauf_731"/><linearGradient id="Unbenannter_Verlauf_731-13" x1="34.73" y1="134.93" x2="41.45" y2="134.93" gradientTransform="translate(-85.87 74.59) rotate(-90)" xlink:href="#Unbenannter_Verlauf_731"/></defs><title>fish</title><circle class="cls-1" cx="36.88" cy="36.87" r="36.37"/><path class="cls-2" d="M22.86,46.15,38.54,77.87C61.27,81.77,80,65.21,81,44.64L74.23,30.93,62.16,43.28l-4.61-9Z" transform="translate(-8.33 -5.7)"/><path class="cls-3" d="M39.12,57.21s-7.36-.38-8.34-2.48c-.53-1.12-1.41-2.68-2.23-4.06a12.24,12.24,0,0,0,2.29,1,16.81,16.81,0,0,0,3.92.65Z" transform="translate(-8.33 -5.7)"/><path class="cls-3" d="M56.87,34.16l-4.74,1.9C48,31.8,43.08,27.58,38.66,26.22a15.69,15.69,0,0,0-7.11-.36c1.32-1,4-2.8,6.17-2.71C42.67,23.35,56.87,34.16,56.87,34.16Z" transform="translate(-8.33 -5.7)"/><path class="cls-4" d="M66.11,51.91A7.1,7.1,0,0,0,63,47.67a10.51,10.51,0,0,0-2.07-1.24c.14,0,1.66.08,2.43.07a7.15,7.15,0,0,0,5-1.74,11.83,11.83,0,0,0,3.42-4.84c.67-1.87,1-3.84,1.53-5.75.09-.3.94-3.53.63-3.47a23.1,23.1,0,0,0-5,2,31.84,31.84,0,0,0-4.5,2.48l-.26.17a14.93,14.93,0,0,0-5.39,6.35,4.43,4.43,0,0,0-.33,1.53c-1.6-2-3.78-4.57-6.25-7.13C48,31.8,43.08,27.58,38.66,26.22a15.69,15.69,0,0,0-7.11-.36h0c-6.11,1-11.7,4.71-13.22,6.46a2.39,2.39,0,0,0-.57,1.76c.28,3,3.92,12.83,10.8,16.59a12.24,12.24,0,0,0,2.29,1,16.81,16.81,0,0,0,3.92.65c7,.43,16.41-2.16,21.89-3.93a4.07,4.07,0,0,0-.22.7,14.94,14.94,0,0,0,.89,8.29l.12.29a34,34,0,0,0,2.33,4.58,23,23,0,0,0,3.06,4.45c.22.22,1.34-2.94,1.43-3.22.62-1.89,1.47-3.7,2-5.63A11.75,11.75,0,0,0,66.11,51.91Z" transform="translate(-8.33 -5.7)"/><path class="cls-5" d="M66.11,51.91A7.1,7.1,0,0,0,63,47.67a10.51,10.51,0,0,0-2.07-1.24c.14,0,1.66.08,2.43.07a7.15,7.15,0,0,0,5-1.74,11.83,11.83,0,0,0,3.42-4.84c.67-1.87,1-3.84,1.53-5.75.09-.3.94-3.53.63-3.47a23.1,23.1,0,0,0-5,2,31.84,31.84,0,0,0-4.5,2.48l-.26.17a14.93,14.93,0,0,0-5.39,6.35,4.43,4.43,0,0,0-.33,1.53c-1.6-2-3.78-4.57-6.25-7.13C48,31.8,43.08,27.58,38.66,26.22a15.69,15.69,0,0,0-7.11-.36h0c-6.11,1-11.7,4.71-13.22,6.46a2.39,2.39,0,0,0-.57,1.76c.28,3,3.92,12.83,10.8,16.59a12.24,12.24,0,0,0,2.29,1,16.81,16.81,0,0,0,3.92.65c7,.43,16.41-2.16,21.89-3.93a4.07,4.07,0,0,0-.22.7,14.94,14.94,0,0,0,.89,8.29l.12.29a34,34,0,0,0,2.33,4.58,23,23,0,0,0,3.06,4.45c.22.22,1.34-2.94,1.43-3.22.62-1.89,1.47-3.7,2-5.63A11.75,11.75,0,0,0,66.11,51.91Z" transform="translate(-8.33 -5.7)"/><path d="M73.22,34.66a7.78,7.78,0,0,0-3.48.61A17.53,17.53,0,0,0,66.46,37,22.45,22.45,0,0,0,61,42.17a22.57,22.57,0,0,1,5.17-5.56,18.84,18.84,0,0,1,3.27-2,8.52,8.52,0,0,1,3.87-.91Z" transform="translate(-8.33 -5.7)"/><path d="M71.58,40.4a4.2,4.2,0,0,0-3.29.12,10.56,10.56,0,0,0-3,2,10.75,10.75,0,0,1,2.74-2.5,5.5,5.5,0,0,1,1.81-.7,4.72,4.72,0,0,1,2,.08Z" transform="translate(-8.33 -5.7)"/><path d="M63.87,63.77a26.16,26.16,0,0,1-3.47-6.24,24,24,0,0,1-1.65-6.86,23.74,23.74,0,0,0,2.11,6.66,25.35,25.35,0,0,0,3.78,5.81Z" transform="translate(-8.33 -5.7)"/><path d="M66.14,58.33a5.89,5.89,0,0,1-3.52-2.39A7.09,7.09,0,0,1,61.5,52,6.69,6.69,0,0,0,63,55.63a5.06,5.06,0,0,0,3.29,1.71Z" transform="translate(-8.33 -5.7)"/><ellipse class="cls-6" cx="36.89" cy="28.02" rx="1.54" ry="3.36" transform="translate(-10.19 47.7) rotate(-70.45)"/><ellipse class="cls-7" cx="35.85" cy="30.93" rx="1.54" ry="3.36" transform="translate(-13.62 48.67) rotate(-70.45)"/><ellipse class="cls-8" cx="36.89" cy="34.39" rx="1.54" ry="3.36" transform="translate(-16.19 51.94) rotate(-70.45)"/><ellipse class="cls-9" cx="39.47" cy="37.9" rx="1.54" ry="3.36" transform="translate(-17.78 56.71) rotate(-70.45)"/><ellipse class="cls-10" cx="40.09" cy="29.09" rx="1.54" ry="3.36" transform="translate(-9.06 51.44) rotate(-70.45)"/><ellipse class="cls-11" cx="40.73" cy="32.66" rx="1.54" ry="3.36" transform="translate(-12 54.41) rotate(-70.45)"/><ellipse class="cls-12" cx="41" cy="35.62" rx="1.54" ry="3.36" transform="translate(-14.61 56.64) rotate(-70.45)"/><ellipse class="cls-13" cx="43.75" cy="31.74" rx="1.54" ry="3.36" transform="translate(-9.13 56.65) rotate(-70.45)"/><ellipse class="cls-14" cx="44.66" cy="38.66" rx="1.54" ry="3.36" transform="translate(-15.04 62.11) rotate(-70.45)"/><ellipse class="cls-15" cx="48.66" cy="38.33" rx="1.54" ry="3.36" transform="translate(-12.08 65.66) rotate(-70.45)"/><ellipse class="cls-16" cx="46.57" cy="34.22" rx="1.54" ry="3.36" transform="translate(-9.59 60.96) rotate(-70.45)"/><ellipse class="cls-17" cx="45.2" cy="36.22" rx="1.54" ry="3.36" transform="translate(-12.39 61) rotate(-70.45)"/><ellipse class="cls-18" cx="49.06" cy="36.5" rx="1.54" ry="3.36" transform="translate(-10.08 64.82) rotate(-70.45)"/></svg>