<svg id="gluten" xmlns="http://www.w3.org/2000/svg" xmlns:xlink="http://www.w3.org/1999/xlink" viewBox="0 0 73.75 73.75"><defs><style>.cls-1{fill:#f3e5b2;}.cls-1,.cls-10,.cls-11,.cls-12,.cls-3,.cls-4,.cls-5,.cls-6,.cls-7,.cls-8,.cls-9{stroke:#000;stroke-miterlimit:10;}.cls-2{fill:#a79251;}.cls-3{fill:url(#Unbenannter_Verlauf_12);}.cls-4{fill:url(#Unbenannter_Verlauf_12-2);}.cls-5{fill:url(#Unbenannter_Verlauf_12-3);}.cls-6{fill:url(#Unbenannter_Verlauf_12-4);}.cls-7{fill:#fbe098;}.cls-8{fill:url(#Unbenannter_Verlauf_12-5);}.cls-9{fill:url(#Unbenannter_Verlauf_12-6);}.cls-10{fill:url(#Unbenannter_Verlauf_12-7);}.cls-11{fill:url(#Unbenannter_Verlauf_12-8);}.cls-12{fill:url(#Unbenannter_Verlauf_12-9);}</style><linearGradient id="Unbenannter_Verlauf_12" x1="237.62" y1="94.48" x2="254.12" y2="129.65" gradientUnits="userSpaceOnUse"><stop offset="0" stop-color="#f7be29"/><stop offset="0" stop-color="#fff"/><stop offset="1" stop-color="#fbe098"/></linearGradient><linearGradient id="Unbenannter_Verlauf_12-2" x1="232.61" y1="96.83" x2="249.11" y2="132" xlink:href="#Unbenannter_Verlauf_12"/><linearGradient id="Unbenannter_Verlauf_12-3" x1="227.46" y1="99.25" x2="243.96" y2="134.42" xlink:href="#Unbenannter_Verlauf_12"/><linearGradient id="Unbenannter_Verlauf_12-4" x1="242.49" y1="92.2" x2="258.99" y2="127.37" xlink:href="#Unbenannter_Verlauf_12"/><linearGradient id="Unbenannter_Verlauf_12-5" x1="228.3" y1="98.85" x2="244.8" y2="134.02" xlink:href="#Unbenannter_Verlauf_12"/><linearGradient id="Unbenannter_Verlauf_12-6" x1="223.06" y1="101.31" x2="239.56" y2="136.48" xlink:href="#Unbenannter_Verlauf_12"/><linearGradient id="Unbenannter_Verlauf_12-7" x1="218.03" y1="103.67" x2="234.53" y2="138.84" xlink:href="#Unbenannter_Verlauf_12"/><linearGradient id="Unbenannter_Verlauf_12-8" x1="233.41" y1="96.46" x2="249.91" y2="131.63" xlink:href="#Unbenannter_Verlauf_12"/><linearGradient id="Unbenannter_Verlauf_12-9" x1="241.44" y1="92.69" x2="257.94" y2="127.86" xlink:href="#Unbenannter_Verlauf_12"/></defs><title>gluten</title><circle class="cls-1" cx="36.88" cy="36.87" r="36.37"/><path class="cls-2" d="M231.92,155.54l3,6.47c16.36,3.56,32-4.42,39.69-18.44l-15.09-32.64-2.87.43L251.2,99.63l-5.77,12.3-5.14,2.65-3.18,5.86-7.44,16.49,5.12,10.35Z" transform="translate(-205.84 -90.07)"/><path class="cls-3" d="M257.88,120.08s-3.95,5.38-7.18,7.21a6,6,0,0,1-.76.38,4.61,4.61,0,0,1-4.36-.32,4.36,4.36,0,0,1-1.71-2c-.56-1.41-.48-4,2.86-5.36a6.38,6.38,0,0,1,1.11-.3,4.57,4.57,0,0,0,5,0,1.77,1.77,0,0,0,.24-.17A47,47,0,0,1,257.88,120.08Z" transform="translate(-205.84 -90.07)"/><path class="cls-4" d="M255.44,127.92s-4,5.27-7.24,7.09a7.41,7.41,0,0,1-.81.39,4.56,4.56,0,0,1-4.5-.47,4.46,4.46,0,0,1-1.54-1.92c-.54-1.43-.42-4.06,2.93-5.33a8.49,8.49,0,0,1,1.3-.33,4.61,4.61,0,0,0,4.36.32,6,6,0,0,0,.76-.38C253.25,127.51,255.44,127.92,255.44,127.92Z" transform="translate(-205.84 -90.07)"/><path class="cls-5" d="M252.81,135.75s-4.86,6.08-8.25,7.25a4.54,4.54,0,0,1-6-2.56c-.5-1.43-.31-4.06,3.08-5.24a7.75,7.75,0,0,1,1.23-.27,4.56,4.56,0,0,0,4.5.47,7.41,7.41,0,0,0,.81-.39C250.7,135.29,252.81,135.75,252.81,135.75Z" transform="translate(-205.84 -90.07)"/><path class="cls-6" d="M259.53,110.93s-3.36,6.56-6.4,8.58a1.77,1.77,0,0,1-.24.17,4.57,4.57,0,0,1-6.37-1.32,3.83,3.83,0,0,1,.44-4.48,4.44,4.44,0,0,0,4.33-2.24A42.43,42.43,0,0,1,259.53,110.93Z" transform="translate(-205.84 -90.07)"/><path class="cls-7" d="M251.29,111.64a4.44,4.44,0,0,1-4.33,2.24,6.31,6.31,0,0,1,1.54-1.26A9.48,9.48,0,0,1,251.29,111.64Z" transform="translate(-205.84 -90.07)"/><path class="cls-8" d="M241.15,124.78a4.47,4.47,0,0,1-2.59.51,4.6,4.6,0,0,1-3.6-2.47c-.13-.23-.24-.48-.36-.75-1.39-3.45-1.13-10.12-1.13-10.12s1.95,1,4.06,2.51c0,.09.05.18.08.27a4.55,4.55,0,0,0,3.94,3.15,5.57,5.57,0,0,1,.69.93C244,121.91,242.46,124,241.15,124.78Z" transform="translate(-205.84 -90.07)"/><path class="cls-9" d="M238.37,132.34a4.43,4.43,0,0,1-2.41.56,4.57,4.57,0,0,1-3.8-2.44,4.25,4.25,0,0,1-.39-.8c-1.42-3.44-1.26-10-1.26-10s2,1,4.09,2.46c.12.27.23.52.36.75a4.6,4.6,0,0,0,3.6,2.47,6.28,6.28,0,0,1,.81,1.07C241.22,129.43,239.67,131.56,238.37,132.34Z" transform="translate(-205.84 -90.07)"/><path class="cls-10" d="M235.91,139.89a4.54,4.54,0,0,1-6.26-1.7c-1.92-3-2-10.81-2-10.81s1.94,1,4.07,2.28a4.25,4.25,0,0,0,.39.8,4.57,4.57,0,0,0,3.8,2.44,7.17,7.17,0,0,1,.79,1C238.68,136.9,237.19,139.08,235.91,139.89Z" transform="translate(-205.84 -90.07)"/><path class="cls-11" d="M243.41,117.65a4.35,4.35,0,0,1-1.86.23,4.55,4.55,0,0,1-3.94-3.15c0-.09-.05-.18-.08-.27-1.11-3.47.33-10.7.33-10.7a44.41,44.41,0,0,1,5.73,5.34,3.89,3.89,0,0,0,2.25,4.51A3.84,3.84,0,0,1,243.41,117.65Z" transform="translate(-205.84 -90.07)"/><path class="cls-7" d="M245.84,113.61a3.89,3.89,0,0,1-2.25-4.51,10.27,10.27,0,0,1,1.84,2.83A6.6,6.6,0,0,1,245.84,113.61Z" transform="translate(-205.84 -90.07)"/><path class="cls-12" d="M251.77,110.59a5.65,5.65,0,0,1-.48,1,4.44,4.44,0,0,1-4.33,2.24,3.34,3.34,0,0,1-.9-.18,1,1,0,0,1-.22-.09,3.89,3.89,0,0,1-2.25-4.51,6.21,6.21,0,0,1,.27-1.07c1.19-3.39,7.34-8.4,7.34-8.4S253,107.2,251.77,110.59Z" transform="translate(-205.84 -90.07)"/><polygon points="39.79 26.51 26.83 65.73 25.35 65.21 39.57 26.43 39.79 26.51"/></svg>