<svg id="milk" xmlns="http://www.w3.org/2000/svg" viewBox="0 0 73.75 73.75"><defs><style>.cls-1{fill:#87a4a6;stroke:#000;stroke-miterlimit:10;}.cls-2{fill:#445253;}.cls-3{fill:#fff;}</style></defs><title>lactose</title><circle class="cls-1" cx="36.88" cy="36.88" r="36.38"/><path class="cls-2" d="M131.9,67.26,137,77.93c18.1,3.8,32.68-7,37.94-17L154.57,14.7Z" transform="translate(-107.13 -5.9)"/><polygon class="cls-3" points="50.14 54.98 43.97 61.15 24.78 61.35 24.79 23.9 28.38 11.6 28.57 8.86 47.45 8.8 47.07 11.65 50.14 17.97 50.14 54.98"/><path d="M131.9,67.26l0-37.46,3.59-12.3.19-2.74,18.87-.06-.38,2.86L157,23.15l.25.5.07.15-.07.07v37l-6.17,6.17Zm.69-.69h17.82V30.24H132.59ZM151.1,30V66.09l5.48-5.49v-36Zm-18.4-.48h17.79L153.4,18l-17.3-.06Zm21.25-11-2.56,10.19,5.12-5.12Zm-17.74-1.37,17.33.05.25-1.88-17.45.06Z" transform="translate(-107.13 -5.9)"/><path d="M137.58,32.3h1.3a.26.26,0,0,1,.18,0,.33.33,0,0,1,0,.19.46.46,0,0,1,0,.2.24.24,0,0,1-.14.11.25.25,0,0,0-.12.1.59.59,0,0,0,0,.17v4.37a.28.28,0,0,0,0,.14s.05.06.12.09a.2.2,0,0,1,.14.18,1.41,1.41,0,0,1,0,.32s-.06,0-.13,0h-1.64c-.07,0-.11-.06-.11-.18a1.42,1.42,0,0,1,0-.23s.06-.09.14-.13a.19.19,0,0,0,.14-.19v-3.1l-.66,2.5h-.41l-.65-2.42v3a.23.23,0,0,0,.13.22A.28.28,0,0,1,136,38c0,.16-.05.24-.16.24h-.8c-.09,0-.13-.08-.13-.23a.28.28,0,0,1,.11-.24.55.55,0,0,0,.11-.11.49.49,0,0,0,0-.15V33.26a.91.91,0,0,0,0-.27.27.27,0,0,0-.14-.16c-.07,0-.11-.08-.11-.12v-.16a.78.78,0,0,1,0-.21s0,0,.1,0h1.36l.59,2.27Z" transform="translate(-107.13 -5.9)"/><path d="M134.87,41.65v-.19a.11.11,0,0,1,.12-.12h1.77a.17.17,0,0,1,.12,0s0,.07,0,.16a.63.63,0,0,1,0,.24s0,0-.09.06-.22.12-.22.29v4.42a.23.23,0,0,0,.16.22.38.38,0,0,1,.13.1.37.37,0,0,1,0,.14v.14a.24.24,0,0,1,0,.13.23.23,0,0,1-.11,0H135c-.07,0-.1,0-.1-.08a2.3,2.3,0,0,1,0-.33.19.19,0,0,1,.13-.09c.14,0,.2-.11.2-.21V42.21a.47.47,0,0,0,0-.23.22.22,0,0,0-.16-.13.27.27,0,0,1-.11-.08A.29.29,0,0,1,134.87,41.65Z" transform="translate(-107.13 -5.9)"/><path d="M136.54,55.92h.21a.25.25,0,0,0,.24-.13,2.8,2.8,0,0,0,.2-.6.4.4,0,0,1,.11-.22.51.51,0,0,1,.21,0,1,1,0,0,1,.22,0,.12.12,0,0,1,0,.1,1.23,1.23,0,0,1,0,.17l-.13.88a.6.6,0,0,1-.06.18.17.17,0,0,1-.14.05H135c-.11,0-.16-.07-.16-.2a.71.71,0,0,1,0-.19.16.16,0,0,1,.09-.06q.21-.06.21-.39V51.13a.22.22,0,0,0-.13-.2c-.08,0-.13-.06-.14-.1a.49.49,0,0,1,0-.2.69.69,0,0,1,0-.2.17.17,0,0,1,.12,0h1.7a.17.17,0,0,1,.13,0,.58.58,0,0,1,0,.25.51.51,0,0,1,0,.16.31.31,0,0,1-.12.08.23.23,0,0,0-.19.24Z" transform="translate(-107.13 -5.9)"/><path d="M137.49,61.11l1,3.52a.37.37,0,0,0,.18.25c.06,0,.09.09.09.19s0,.09,0,.23-.06.08-.16.08h-1.46a.14.14,0,0,1-.11,0s0-.07,0-.16,0-.08,0-.19a.15.15,0,0,1,.09-.1.14.14,0,0,0,.12-.13s0,0,0-.06l-.52-1.86-.12.28v1.5a.35.35,0,0,0,.16.29s.08.08.08.18a.6.6,0,0,1,0,.23s-.07,0-.15,0H135a.17.17,0,0,1-.12,0,.4.4,0,0,1,0-.2.78.78,0,0,1,0-.21.29.29,0,0,1,.1-.07.21.21,0,0,0,.14-.2V60.25A.28.28,0,0,0,135,60c-.06,0-.1-.06-.11-.09a.37.37,0,0,1,0-.14,1.26,1.26,0,0,1,0-.29s.05,0,.11,0h1.68c.07,0,.11,0,.11.1a2.22,2.22,0,0,1,0,.34s0,.07-.1.1a.27.27,0,0,0-.18.24V62.1l.8-1.82a.71.71,0,0,0,.07-.23s0-.06-.09-.11a.26.26,0,0,1-.12-.11,1.07,1.07,0,0,1,0-.25c0-.09,0-.14.11-.14h1c.05,0,.09,0,.1,0a.66.66,0,0,1,0,.19.43.43,0,0,1,0,.21.4.4,0,0,1-.14.09.31.31,0,0,0-.13.06l-.06.09Z" transform="translate(-107.13 -5.9)"/></svg>