<svg id="lupines" xmlns="http://www.w3.org/2000/svg" xmlns:xlink="http://www.w3.org/1999/xlink" viewBox="0 0 73.75 73.75"><defs><style>.cls-1{fill:#b494b3;}.cls-1,.cls-3,.cls-4,.cls-5,.cls-6,.cls-7,.cls-8{stroke:#000;stroke-miterlimit:10;}.cls-2{fill:#665170;}.cls-3{fill:url(#Unbenannter_Verlauf_262);}.cls-4{fill:url(#Unbenannter_Verlauf_262-2);}.cls-5{fill:url(#Unbenannter_Verlauf_262-3);}.cls-6{fill:url(#Unbenannter_Verlauf_262-4);}.cls-7{fill:url(#Unbenannter_Verlauf_262-5);}.cls-8{fill:url(#Unbenannter_Verlauf_262-6);}</style><linearGradient id="Unbenannter_Verlauf_262" x1="47.77" y1="96.06" x2="47.95" y2="136.16" gradientUnits="userSpaceOnUse"><stop offset="0" stop-color="#c3ffaa"/><stop offset="0.18" stop-color="#c0dfc3"/><stop offset="0.41" stop-color="#bebfdd"/><stop offset="0.62" stop-color="#bca7f0"/><stop offset="0.83" stop-color="#ba99fb"/><stop offset="1" stop-color="#ba94ff"/></linearGradient><linearGradient id="Unbenannter_Verlauf_262-2" x1="47.73" y1="96.06" x2="47.91" y2="136.16" xlink:href="#Unbenannter_Verlauf_262"/><linearGradient id="Unbenannter_Verlauf_262-3" x1="47.69" y1="96.06" x2="47.87" y2="136.16" xlink:href="#Unbenannter_Verlauf_262"/><linearGradient id="Unbenannter_Verlauf_262-4" x1="47.79" y1="96.06" x2="47.97" y2="136.16" xlink:href="#Unbenannter_Verlauf_262"/><linearGradient id="Unbenannter_Verlauf_262-5" x1="47.82" y1="96.06" x2="48" y2="136.16" xlink:href="#Unbenannter_Verlauf_262"/><linearGradient id="Unbenannter_Verlauf_262-6" x1="47.83" y1="96.06" x2="48.01" y2="136.16" xlink:href="#Unbenannter_Verlauf_262"/></defs><title>lupines</title><path class="cls-1" d="M47.84,88.9a36.38,36.38,0,1,1,0,72.75" transform="translate(-10.97 -88.4)"/><path class="cls-1" d="M47.84,161.65a36.38,36.38,0,0,1,0-72.75" transform="translate(-10.97 -88.4)"/><path class="cls-2" d="M47.36,161.17c12,0,21.2-4.67,28.49-13.47L51.52,98.39l-3.32.43-3.26.41-2.46,3.08,1.24,2.51-5.31,10,1.21,2.58-3,1.18-.78,3.82,1.64,3.32-1.82,7.7-.23,1.13,12,26.63" transform="translate(-10.97 -88.4)"/><polygon points="34.67 64.79 36.38 20.27 37.38 20.27 39.08 64.79 34.67 64.79"/><path class="cls-3" d="M38,110.76c-1.69,3.43,1.2,5.76,5.57,5a9.43,9.43,0,0,0,9.1,0c5.48.18,6.43-3.17,5-5s-4.06-1.82-5.29,1.21c-2.85-2.57-5.59-2.84-8.12.18C41.63,108.53,39,108.69,38,110.76Z" transform="translate(-10.97 -88.4)"/><path class="cls-4" d="M35.87,118.21c-2,4.15,1.46,7,6.74,6.07,3.6,1.76,7.5,2,11,0,6.62.23,7.77-3.83,6.06-6.07s-4.91-2.19-6.4,1.46c-3.44-3.1-6.76-3.42-9.81.23C40.33,115.52,37.11,115.7,35.87,118.21Z" transform="translate(-10.97 -88.4)"/><path class="cls-5" d="M33.44,127.32c-2.45,5,1.76,8.38,8.11,7.3,4.33,2.12,9,2.43,13.25,0,8,.27,9.35-4.62,7.3-7.3s-5.91-2.65-7.7,1.76c-4.14-3.74-8.13-4.13-11.81.27C38.81,124.07,34.93,124.3,33.44,127.32Z" transform="translate(-10.97 -88.4)"/><path class="cls-6" d="M40,104.92c-1.33,2.72,1,4.57,4.42,4a7.48,7.48,0,0,0,7.21,0c4.34.14,5.09-2.52,4-4s-3.21-1.44-4.19,1c-2.25-2-4.43-2.25-6.43.15C42.92,103.16,40.81,103.28,40,104.92Z" transform="translate(-10.97 -88.4)"/><path class="cls-7" d="M42.73,100.57c-.87,1.77.62,3,2.88,2.59a4.88,4.88,0,0,0,4.7,0c2.83.09,3.32-1.64,2.59-2.59s-2.1-.94-2.73.62c-1.47-1.33-2.89-1.46-4.19.09C44.63,99.41,43.26,99.49,42.73,100.57Z" transform="translate(-10.97 -88.4)"/><path class="cls-8" d="M44.68,97.83c-.54,1.09.38,1.84,1.78,1.6a3,3,0,0,0,2.91,0c1.75.06,2.05-1,1.6-1.6s-1.29-.58-1.69.39c-.91-.83-1.78-.91-2.59,0C45.86,97.12,45,97.17,44.68,97.83Z" transform="translate(-10.97 -88.4)"/></svg>