<svg id="molluscs" xmlns="http://www.w3.org/2000/svg" xmlns:xlink="http://www.w3.org/1999/xlink" viewBox="0 0 73.75 73.75"><defs><style>.cls-1{fill:#d2cf68;}.cls-1,.cls-5{stroke:#000;stroke-miterlimit:10;}.cls-2{fill:#807e40;}.cls-3{fill:url(#Unbenannter_Verlauf_640);}.cls-4{fill:#c69c6d;}.cls-5{fill:none;}</style><radialGradient id="Unbenannter_Verlauf_640" cx="235.13" cy="295.48" fx="220.9658075627116" fy="305.1628404677643" r="18.67" gradientUnits="userSpaceOnUse"><stop offset="0.24" stop-color="#42210b"/><stop offset="0.4" stop-color="#44230c"/><stop offset="0.48" stop-color="#4c2911"/><stop offset="0.54" stop-color="#593519"/><stop offset="0.59" stop-color="#6b4524"/><stop offset="0.63" stop-color="#835a33"/><stop offset="0.65" stop-color="#8c6239"/><stop offset="0.81" stop-color="#c69c6d"/></radialGradient></defs><title>molluscs</title><circle class="cls-1" cx="36.88" cy="36.88" r="36.38"/><path class="cls-2" d="M221.4,315.55,229,332.46c22.85,8.16,42-6.43,46.72-21.79L262.62,281l-3.94,6.8L254.47,298l-6.2,4-1-7.51Z" transform="translate(-204.93 -262)"/><path class="cls-3" d="M249.15,299.43c.33.6,1.22.1,1.32.72.9,6-9.08,13.05-15.73,13.53-8.3.6-13.81-4.53-12.67-13.89,1-8.27,6.76-16.63,14.12-16.77,4.36-.09,6.55,2.14,8.48,6.13C246,291.89,247.1,295.61,249.15,299.43Z" transform="translate(-204.93 -262)"/><path class="cls-4" d="M251.14,299.57c2.26-.05,4.31-11.19,6.65-11.67s7.91,4.1,5.41,4.69c-5.69,1.34-5.69,23.59-22.42,23.44-11.22-.1-23.44.25-21.15-3.13,2.86-4.2,6.42-1.27,12.87,1.18S247.05,299.67,251.14,299.57Z" transform="translate(-204.93 -262)"/><path class="cls-5" d="M234.47,300.68c-2.77-.61-1.9-4.52,1-3a2.88,2.88,0,0,1,1.08,4.45c-3.61,4.83-8.53-3.51-4.33-7.27s8.46,4.7,8.06,8.73c-.44,4.37-9.36,5.6-12.05,1.17-1.36-2.23-.8-5,0-7.22,1.41-3.73,3.06-5.69,7.18-6.5,8.22-1.62,8.46,13.63,6.48,17.51-2.49,4.91-9.53,6.7-13.7,3.66-3.28-2.4-4.46-.78-6.13-8-2.84-12.21,9.49-25.24,18.89-20,2.47,1.37,3.81,4.06,4.75,6.57.72,1.93,1.59,7.9,3.91,8.54,2.76.77,4.73-5.25,5.3-7.32,2.58-9.44,9.85-.5,8.28.54-7.41,4.94-3.94,14-14.14,21.71-2.5,1.89-33.71,4.13-29.43-1.4,2.52-3.25,3.49-3.28,8.93-.35" transform="translate(-204.93 -262)"/><line class="cls-5" x1="53.75" y1="25.77" x2="56.29" y2="20.33"/><line class="cls-5" x1="55.97" y1="26.58" x2="58.24" y2="22.47"/><circle class="cls-5" cx="56.73" cy="19.38" r="0.8"/><circle class="cls-5" cx="58.49" cy="22.03" r="0.84"/></svg>