<svg id="mustard" xmlns="http://www.w3.org/2000/svg" xmlns:xlink="http://www.w3.org/1999/xlink" viewBox="0 0 73.75 73.75"><defs><style>.cls-1{fill:#dbc460;}.cls-1,.cls-3,.cls-4,.cls-5{stroke:#000;stroke-miterlimit:10;}.cls-2{fill:#6e622f;}.cls-3{fill:url(#Unbenannter_Verlauf_14);}.cls-4{fill:#fcdc58;}.cls-5{fill:#754c24;}</style><linearGradient id="Unbenannter_Verlauf_14" x1="20.54" y1="172.82" x2="55.79" y2="236.82" gradientUnits="userSpaceOnUse"><stop offset="0" stop-color="#f7be29"/><stop offset="0" stop-color="#fff"/><stop offset="1" stop-color="#e9be00"/></linearGradient></defs><title>mustard</title><circle class="cls-1" cx="36.88" cy="36.87" r="36.37"/><path class="cls-2" d="M36.51,238.75l4.31,9.67a35.91,35.91,0,0,0,31.8-11.68L53.81,195.22l-2.84,0-3.47-7.88,1.63,13.54Z" transform="translate(-8.98 -175.99)"/><path class="cls-3" d="M56.59,238.75H36.51l1.32-41.44c2.92-2.93,13.94-3.22,16.54,0Z" transform="translate(-8.98 -175.99)"/><path class="cls-4" d="M53.15,197.63a21.2,21.2,0,0,1-14.15,0c-.79-.29,0-3.36,0-3.36,4.14-1,11-1.2,14.15,0C53.15,194.27,53.93,197.32,53.15,197.63Z" transform="translate(-8.98 -175.99)"/><path class="cls-5" d="M48,195H44.18s-.25-6.58.74-8h2.4C48.38,188.57,48,195,48,195Z" transform="translate(-8.98 -175.99)"/></svg>