<svg id="nuts" xmlns="http://www.w3.org/2000/svg" xmlns:xlink="http://www.w3.org/1999/xlink" viewBox="0 0 73.75 73.75"><defs><style>.cls-1{fill:#ffc399;}.cls-1,.cls-3,.cls-4{stroke:#000;stroke-miterlimit:10;}.cls-2{fill:#7f684c;}.cls-3{fill:#a67c52;}.cls-4{fill:none;}.cls-5{fill:url(#Unbenannter_Verlauf_11);}.cls-6{fill:url(#Unbenannter_Verlauf_11-2);}.cls-7{fill:url(#Unbenannter_Verlauf_11-3);}</style><radialGradient id="Unbenannter_Verlauf_11" cx="141.74" cy="103.06" r="16.23" gradientUnits="userSpaceOnUse"><stop offset="0" stop-color="#fff"/><stop offset="0.01" stop-color="#fdfcfb"/><stop offset="0.2" stop-color="#e3d5c8"/><stop offset="0.38" stop-color="#cdb59d"/><stop offset="0.55" stop-color="#bc9c7d"/><stop offset="0.71" stop-color="#b08a65"/><stop offset="0.87" stop-color="#a98057"/><stop offset="1" stop-color="#a67c52"/></radialGradient><radialGradient id="Unbenannter_Verlauf_11-2" cx="161.62" cy="108.01" r="16.23" xlink:href="#Unbenannter_Verlauf_11"/><radialGradient id="Unbenannter_Verlauf_11-3" cx="147.02" cy="123.96" r="16.23" xlink:href="#Unbenannter_Verlauf_11"/></defs><title>nuts</title><circle class="cls-1" cx="36.88" cy="36.88" r="36.38"/><path class="cls-2" d="M133.93,147.63l6.33,14.86c22.75,2.75,35.88-13,39.48-25L172.13,120l-13.77,10-29.11-2,4.6,9.3,7.74,4.83Z" transform="translate(-108.56 -90.07)"/><path class="cls-3" d="M151.32,121.15c-2.94,6.59-13.15,12.14-18.62,9.71s-8.19-13.73-5.26-20.33,9.63-7.52,16.19-4.52C151,109.38,154.25,114.56,151.32,121.15Z" transform="translate(-108.56 -90.07)"/><path class="cls-4" d="M133.15,104.59c1.76,7.75,10.16,11.93,19.1,10.43" transform="translate(-108.56 -90.07)"/><path class="cls-5" d="M151.65,114.61a17,17,0,0,1-12.22-2.25,12.42,12.42,0,0,1-5.58-7.08s3.7-1.63,10.46,1.55C150.67,109.82,151.65,114.61,151.65,114.61Z" transform="translate(-108.56 -90.07)"/><path class="cls-3" d="M171.2,126.1c-2.93,6.59-13.15,12.15-18.62,9.71s-8.19-13.73-5.25-20.32S157,108,163.51,111C170.89,114.34,174.13,119.51,171.2,126.1Z" transform="translate(-108.56 -90.07)"/><path class="cls-4" d="M153,109.55c1.76,7.75,10.16,11.92,19.1,10.42" transform="translate(-108.56 -90.07)"/><path class="cls-6" d="M171.53,119.56a17,17,0,0,1-12.22-2.25,12.42,12.42,0,0,1-5.58-7.08s3.7-1.63,10.46,1.55C170.55,114.78,171.53,119.56,171.53,119.56Z" transform="translate(-108.56 -90.07)"/><path class="cls-3" d="M156.59,142.05c-2.93,6.59-13.14,12.14-18.61,9.71s-8.19-13.73-5.26-20.33,9.63-7.52,16.19-4.52C156.28,130.28,159.52,135.46,156.59,142.05Z" transform="translate(-108.56 -90.07)"/><path class="cls-4" d="M138.43,125.49c1.76,7.75,10.15,11.93,19.1,10.43" transform="translate(-108.56 -90.07)"/><path class="cls-7" d="M156.93,135.51a17,17,0,0,1-12.22-2.25,12.42,12.42,0,0,1-5.58-7.08s3.69-1.63,10.45,1.55C156,130.72,156.93,135.51,156.93,135.51Z" transform="translate(-108.56 -90.07)"/></svg>