<svg id="Peanuts" xmlns="http://www.w3.org/2000/svg" xmlns:xlink="http://www.w3.org/1999/xlink" viewBox="0 0 73.75 73.75"><defs><style>.cls-1{fill:#ad9f87;}.cls-1,.cls-3,.cls-4,.cls-5{stroke:#000;stroke-miterlimit:10;}.cls-2{fill:#73654f;}.cls-3{fill:#c7b299;}.cls-4{fill:url(#Unbenannter_Verlauf_39);}.cls-5{fill:#fbe098;}.cls-6{fill:#f8cc88;}</style><linearGradient id="Unbenannter_Verlauf_39" x1="228.58" y1="188.82" x2="256.08" y2="234.32" gradientUnits="userSpaceOnUse"><stop offset="0" stop-color="#f7be29"/><stop offset="0" stop-color="#c7b299"/><stop offset="0.02" stop-color="#c5af95"/><stop offset="0.13" stop-color="#ba9c7d"/><stop offset="0.27" stop-color="#b18e6a"/><stop offset="0.42" stop-color="#ab845c"/><stop offset="0.62" stop-color="#a77e54"/><stop offset="1" stop-color="#a67c52"/></linearGradient></defs><title>peanuts</title><circle class="cls-1" cx="36.88" cy="36.88" r="36.38"/><path class="cls-2" d="M220.45,213,237,250c20,1.7,31.64-9.37,37.07-20.18l-5.64-13Z" transform="translate(-204.81 -177.37)"/><path class="cls-3" d="M241.17,194.65" transform="translate(-204.81 -177.37)"/><path class="cls-4" d="M221,202c9.23-18.19,23.14,1.33,24.15,3.19.87,1.61.89,2.1,2.31,3.49a6.33,6.33,0,0,0,4.43,1.6c8.45-.6,21.6,1.5,14.92,14.55-5.66,11-13.49,5.14-21.41-3.87-.66-.75-1.42-2-2.3-2.33a8.18,8.18,0,0,0-3.88-.08C232.24,219.51,212.59,218.58,221,202Z" transform="translate(-204.81 -177.37)"/><path class="cls-5" d="M245.71,221.17a5.4,5.4,0,0,1,3.86,7.67,5.25,5.25,0,0,1-8.3,2c-5.81-4.66-5.05-8.17-5.05-8.17S239,219.44,245.71,221.17Z" transform="translate(-204.81 -177.37)"/><path class="cls-5" d="M259.62,223.24a5.41,5.41,0,0,1,3.86,7.66c-1.23,2.66-4.86,4.74-8.31,2-5.81-4.67-5-8.17-5-8.17S253,221.51,259.62,223.24Z" transform="translate(-204.81 -177.37)"/><path class="cls-5" d="M252.67,213.61a5.41,5.41,0,0,1,3.86,7.67c-1.23,2.65-4.86,4.73-8.31,2-5.81-4.66-5-8.17-5-8.17S246,211.88,252.67,213.61Z" transform="translate(-204.81 -177.37)"/><path class="cls-6" d="M237.5,205.76a3.56,3.56,0,0,1-1.3-2.5,3.52,3.52,0,0,1,4.41,3.15A5.22,5.22,0,0,1,237.5,205.76Z" transform="translate(-204.81 -177.37)"/><path class="cls-6" d="M232.35,202.67a3.59,3.59,0,0,1-1.66-2.27,3.51,3.51,0,0,1,4.83,2.46A5.16,5.16,0,0,1,232.35,202.67Z" transform="translate(-204.81 -177.37)"/><path class="cls-6" d="M242.62,209.31a3.54,3.54,0,0,1-1.3-2.49,3.53,3.53,0,0,1,4.41,3.15A5.17,5.17,0,0,1,242.62,209.31Z" transform="translate(-204.81 -177.37)"/><path class="cls-6" d="M234.77,209.87a3.58,3.58,0,0,1-1.69-2.25,3.51,3.51,0,0,1,4.86,2.39A5.15,5.15,0,0,1,234.77,209.87Z" transform="translate(-204.81 -177.37)"/><path class="cls-6" d="M240.41,212.76a3.59,3.59,0,0,1-1.69-2.26,4.35,4.35,0,0,1,3,.06,4.28,4.28,0,0,1,1.86,2.34A5.15,5.15,0,0,1,240.41,212.76Z" transform="translate(-204.81 -177.37)"/><path class="cls-6" d="M238.89,216.47a3.56,3.56,0,0,1-1.85-2.12,3.52,3.52,0,0,1,5,2A5.15,5.15,0,0,1,238.89,216.47Z" transform="translate(-204.81 -177.37)"/><path class="cls-6" d="M232.5,213.91a3.56,3.56,0,0,1-1.86-2.12,3.52,3.52,0,0,1,5,2A5.11,5.11,0,0,1,232.5,213.91Z" transform="translate(-204.81 -177.37)"/><path class="cls-6" d="M226.73,211.45a3.56,3.56,0,0,1-1.85-2.12,4.3,4.3,0,0,1,3-.17,4.36,4.36,0,0,1,2,2.19A5.15,5.15,0,0,1,226.73,211.45Z" transform="translate(-204.81 -177.37)"/><path class="cls-6" d="M223.21,206.44a2,2,0,0,1-1-1.37,1.82,1.82,0,0,1,2.9,1.17A2.75,2.75,0,0,1,223.21,206.44Z" transform="translate(-204.81 -177.37)"/><path class="cls-6" d="M226.69,208.15a2,2,0,0,1-1-1.37,1.81,1.81,0,0,1,2.9,1.16A2.79,2.79,0,0,1,226.69,208.15Z" transform="translate(-204.81 -177.37)"/><path class="cls-6" d="M238.24,213.67a2,2,0,0,1-1-1.37,1.82,1.82,0,0,1,2.91,1.16A2.81,2.81,0,0,1,238.24,213.67Z" transform="translate(-204.81 -177.37)"/><path class="cls-6" d="M234.45,211.87a2,2,0,0,1-1-1.37,2.33,2.33,0,0,1,1.78-.24,2.38,2.38,0,0,1,1.12,1.41A2.81,2.81,0,0,1,234.45,211.87Z" transform="translate(-204.81 -177.37)"/><path class="cls-6" d="M230.71,210a2,2,0,0,1-1-1.37,1.81,1.81,0,0,1,2.9,1.17A2.81,2.81,0,0,1,230.71,210Z" transform="translate(-204.81 -177.37)"/><path class="cls-6" d="M238.79,208.71a2,2,0,0,1-.63-1.58,2.36,2.36,0,0,1,1.79.22,2.41,2.41,0,0,1,.72,1.66A2.81,2.81,0,0,1,238.79,208.71Z" transform="translate(-204.81 -177.37)"/><path class="cls-6" d="M242.6,205.43a1.52,1.52,0,0,1-.13-1.23,1.8,1.8,0,0,1,1.19.56,1.75,1.75,0,0,1,.18,1.3A2.13,2.13,0,0,1,242.6,205.43Z" transform="translate(-204.81 -177.37)"/><path class="cls-6" d="M240.15,203.49a1.49,1.49,0,0,1-.18-1.23,1.79,1.79,0,0,1,1.21.52,1.75,1.75,0,0,1,.23,1.29A2.09,2.09,0,0,1,240.15,203.49Z" transform="translate(-204.81 -177.37)"/><path class="cls-6" d="M237.69,201.53a1.49,1.49,0,0,1-.19-1.22,1.38,1.38,0,0,1,1.45,1.8A2.09,2.09,0,0,1,237.69,201.53Z" transform="translate(-204.81 -177.37)"/><path class="cls-6" d="M235.3,200.06a1.49,1.49,0,0,1-.16-1.23,1.39,1.39,0,0,1,1.42,1.83A2.16,2.16,0,0,1,235.3,200.06Z" transform="translate(-204.81 -177.37)"/><path class="cls-6" d="M230.39,198.57a1.54,1.54,0,0,1-.49-1.15,1.39,1.39,0,0,1,1.85,1.4A2.11,2.11,0,0,1,230.39,198.57Z" transform="translate(-204.81 -177.37)"/><path class="cls-6" d="M232.76,198.37a1.49,1.49,0,0,1-.42-1.17,1.77,1.77,0,0,1,1.29.28,1.75,1.75,0,0,1,.48,1.22A2.13,2.13,0,0,1,232.76,198.37Z" transform="translate(-204.81 -177.37)"/><path class="cls-6" d="M235.42,206.7a2,2,0,0,1-.63-1.59A1.83,1.83,0,0,1,237.3,207,2.81,2.81,0,0,1,235.42,206.7Z" transform="translate(-204.81 -177.37)"/><path class="cls-6" d="M229.07,203a2,2,0,0,1-.62-1.58,2.42,2.42,0,0,1,1.79.22,2.38,2.38,0,0,1,.71,1.66A2.81,2.81,0,0,1,229.07,203Z" transform="translate(-204.81 -177.37)"/><path class="cls-6" d="M232.17,205a2,2,0,0,1-.62-1.59,2.39,2.39,0,0,1,1.79.23,2.36,2.36,0,0,1,.71,1.65A2.78,2.78,0,0,1,232.17,205Z" transform="translate(-204.81 -177.37)"/><path class="cls-6" d="M226.16,201.25a2,2,0,0,1-.62-1.59,2.39,2.39,0,0,1,1.79.23,2.36,2.36,0,0,1,.71,1.65A2.78,2.78,0,0,1,226.16,201.25Z" transform="translate(-204.81 -177.37)"/><path class="cls-6" d="M229.13,207a3.55,3.55,0,0,1-1.68-2.25,3.51,3.51,0,0,1,4.85,2.4A5.1,5.1,0,0,1,229.13,207Z" transform="translate(-204.81 -177.37)"/><path class="cls-6" d="M236.51,216.56a1.52,1.52,0,0,0-1.09.63,1.74,1.74,0,0,0,1.15.63,1.81,1.81,0,0,0,1.17-.63A2,2,0,0,0,236.51,216.56Z" transform="translate(-204.81 -177.37)"/><path class="cls-6" d="M233.49,215.71a1.55,1.55,0,0,0-1.11.59,1.78,1.78,0,0,0,1.13.68,1.82,1.82,0,0,0,1.19-.59A2.09,2.09,0,0,0,233.49,215.71Z" transform="translate(-204.81 -177.37)"/><path class="cls-6" d="M230.46,214.87a1.52,1.52,0,0,0-1.11.58,1.74,1.74,0,0,0,1.12.68,1.82,1.82,0,0,0,1.2-.57A2.08,2.08,0,0,0,230.46,214.87Z" transform="translate(-204.81 -177.37)"/><path class="cls-6" d="M227.87,213.8a1.51,1.51,0,0,0-1.1.6,1.74,1.74,0,0,0,1.13.66,1.82,1.82,0,0,0,1.19-.59A2.08,2.08,0,0,0,227.87,213.8Z" transform="translate(-204.81 -177.37)"/><path class="cls-6" d="M223.79,210.67a1.51,1.51,0,0,0-1.22.29,1.39,1.39,0,0,0,2.22.68A2.1,2.1,0,0,0,223.79,210.67Z" transform="translate(-204.81 -177.37)"/><path class="cls-6" d="M225,212.73a1.49,1.49,0,0,0-1.2.35,1.38,1.38,0,0,0,2.25.56A2.06,2.06,0,0,0,225,212.73Z" transform="translate(-204.81 -177.37)"/></svg>