<svg id="sesame" xmlns="http://www.w3.org/2000/svg" xmlns:xlink="http://www.w3.org/1999/xlink" viewBox="0 0 73.75 73.75"><defs><style>.cls-1{fill:#607f4e;}.cls-1,.cls-10,.cls-11,.cls-12,.cls-13,.cls-14,.cls-15,.cls-16,.cls-17,.cls-18,.cls-19,.cls-20,.cls-21,.cls-3,.cls-4,.cls-5,.cls-6,.cls-7,.cls-8,.cls-9{stroke:#000;stroke-miterlimit:10;}.cls-2{fill:#324d21;}.cls-3{fill:url(#Unbenannter_Verlauf_31);}.cls-4{fill:url(#Unbenannter_Verlauf_31-2);}.cls-5{fill:url(#Unbenannter_Verlauf_31-3);}.cls-6{fill:url(#Unbenannter_Verlauf_31-4);}.cls-7{fill:url(#Unbenannter_Verlauf_31-5);}.cls-8{fill:url(#Unbenannter_Verlauf_31-6);}.cls-9{fill:url(#Unbenannter_Verlauf_31-7);}.cls-10{fill:url(#Unbenannter_Verlauf_31-8);}.cls-11{fill:url(#Unbenannter_Verlauf_31-9);}.cls-12{fill:url(#Unbenannter_Verlauf_31-10);}.cls-13{fill:url(#Unbenannter_Verlauf_31-11);}.cls-14{fill:url(#Unbenannter_Verlauf_31-12);}.cls-15{fill:url(#Unbenannter_Verlauf_31-13);}.cls-16{fill:url(#Unbenannter_Verlauf_31-14);}.cls-17{fill:url(#Unbenannter_Verlauf_31-15);}.cls-18{fill:url(#Unbenannter_Verlauf_31-16);}.cls-19{fill:url(#Unbenannter_Verlauf_31-17);}.cls-20{fill:url(#Unbenannter_Verlauf_31-18);}.cls-21{fill:url(#Unbenannter_Verlauf_31-19);}</style><linearGradient id="Unbenannter_Verlauf_31" x1="111.08" y1="180.66" x2="146.83" y2="244.91" gradientUnits="userSpaceOnUse"><stop offset="0" stop-color="#f7be29"/><stop offset="0" stop-color="#fbe098"/><stop offset="0.15" stop-color="#f4d995"/><stop offset="0.37" stop-color="#e0c78e"/><stop offset="0.64" stop-color="#bfa983"/><stop offset="0.89" stop-color="#998675"/></linearGradient><linearGradient id="Unbenannter_Verlauf_31-2" x1="119.62" y1="175.91" x2="155.37" y2="240.16" xlink:href="#Unbenannter_Verlauf_31"/><linearGradient id="Unbenannter_Verlauf_31-3" x1="127.27" y1="171.65" x2="163.02" y2="235.9" xlink:href="#Unbenannter_Verlauf_31"/><linearGradient id="Unbenannter_Verlauf_31-4" x1="123.55" y1="173.72" x2="159.3" y2="237.97" xlink:href="#Unbenannter_Verlauf_31"/><linearGradient id="Unbenannter_Verlauf_31-5" x1="126.4" y1="172.13" x2="162.15" y2="236.38" xlink:href="#Unbenannter_Verlauf_31"/><linearGradient id="Unbenannter_Verlauf_31-6" x1="132.78" y1="168.58" x2="168.53" y2="232.83" xlink:href="#Unbenannter_Verlauf_31"/><linearGradient id="Unbenannter_Verlauf_31-7" x1="131.12" y1="169.51" x2="166.87" y2="233.76" xlink:href="#Unbenannter_Verlauf_31"/><linearGradient id="Unbenannter_Verlauf_31-8" x1="113.87" y1="179.11" x2="149.62" y2="243.36" xlink:href="#Unbenannter_Verlauf_31"/><linearGradient id="Unbenannter_Verlauf_31-9" x1="118.79" y1="176.37" x2="154.54" y2="240.62" xlink:href="#Unbenannter_Verlauf_31"/><linearGradient id="Unbenannter_Verlauf_31-10" x1="111.02" y1="180.69" x2="146.77" y2="244.94" xlink:href="#Unbenannter_Verlauf_31"/><linearGradient id="Unbenannter_Verlauf_31-11" x1="115.46" y1="178.22" x2="151.21" y2="242.47" xlink:href="#Unbenannter_Verlauf_31"/><linearGradient id="Unbenannter_Verlauf_31-12" x1="105.86" y1="183.56" x2="141.61" y2="247.81" xlink:href="#Unbenannter_Verlauf_31"/><linearGradient id="Unbenannter_Verlauf_31-13" x1="121.9" y1="174.64" x2="157.65" y2="238.89" xlink:href="#Unbenannter_Verlauf_31"/><linearGradient id="Unbenannter_Verlauf_31-14" x1="128.33" y1="171.06" x2="164.08" y2="235.31" xlink:href="#Unbenannter_Verlauf_31"/><linearGradient id="Unbenannter_Verlauf_31-15" x1="123.79" y1="173.59" x2="159.54" y2="237.84" xlink:href="#Unbenannter_Verlauf_31"/><linearGradient id="Unbenannter_Verlauf_31-16" x1="134.14" y1="167.83" x2="169.89" y2="232.08" xlink:href="#Unbenannter_Verlauf_31"/><linearGradient id="Unbenannter_Verlauf_31-17" x1="135.93" y1="166.83" x2="171.68" y2="231.08" xlink:href="#Unbenannter_Verlauf_31"/><linearGradient id="Unbenannter_Verlauf_31-18" x1="121.93" y1="174.62" x2="157.68" y2="238.87" xlink:href="#Unbenannter_Verlauf_31"/><linearGradient id="Unbenannter_Verlauf_31-19" x1="120.24" y1="175.56" x2="155.99" y2="239.81" xlink:href="#Unbenannter_Verlauf_31"/></defs><title>sesame</title><path class="cls-1" d="M146.19,177.12a36.38,36.38,0,1,1-36.37,36.38" transform="translate(-109.32 -176.62)"/><path class="cls-1" d="M109.82,213.5a36.37,36.37,0,0,1,36.37-36.38" transform="translate(-109.32 -176.62)"/><path class="cls-2" d="M124.5,223.71l12,24.34c20.55,5.49,34-6.67,39-13.84L164.06,211.1,158.24,207l-4.62-9.35-3.27,2.26-7.6-4.56L129,200.71l3.35,6.78-8.66,3.95,3.33,6.74Z" transform="translate(-109.32 -176.62)"/><path class="cls-3" d="M130,207.69c0,2.61-.95,4.34-3.6,4.34s-3.6-1.61-3.6-4.23,3.09-4.84,3.09-4.84S130,205.08,130,207.69Z" transform="translate(-109.32 -176.62)"/><path class="cls-4" d="M135.75,197.53c.79,2.49.4,4.42-2.14,5.19s-3.92-.49-4.7-3,1.49-5.52,1.49-5.52S135,195,135.75,197.53Z" transform="translate(-109.32 -176.62)"/><path class="cls-5" d="M145.22,196.9c0,2.61-.95,4.33-3.6,4.33S138,199.62,138,197s3.09-4.85,3.09-4.85S145.22,194.28,145.22,196.9Z" transform="translate(-109.32 -176.62)"/><path class="cls-6" d="M147.74,209.8c1.23,2.31,1.2,4.27-1.15,5.48s-4,.22-5.18-2.09.46-5.7.46-5.7S146.51,207.48,147.74,209.8Z" transform="translate(-109.32 -176.62)"/><path class="cls-7" d="M147.7,203c.87,2.47.55,4.41-1.95,5.27s-3.94-.36-4.81-2.83,1.3-5.57,1.3-5.57S146.83,200.55,147.7,203Z" transform="translate(-109.32 -176.62)"/><path class="cls-8" d="M153.29,198.58c-.16,2.61-1.22,4.28-3.86,4.11s-3.49-1.82-3.33-4.43,3.38-4.65,3.38-4.65S153.45,196,153.29,198.58Z" transform="translate(-109.32 -176.62)"/><path class="cls-9" d="M156.9,209c-.17,2.6-1.22,4.27-3.87,4.11s-3.49-1.83-3.32-4.44,3.38-4.65,3.38-4.65S157.06,206.38,156.9,209Z" transform="translate(-109.32 -176.62)"/><path class="cls-10" d="M136,212.07c-.16,2.61-1.22,4.27-3.86,4.11s-3.49-1.83-3.33-4.43,3.39-4.65,3.39-4.65S136.2,209.46,136,212.07Z" transform="translate(-109.32 -176.62)"/><path class="cls-11" d="M151.74,228.73c-.16,2.6-1.22,4.27-3.86,4.11s-3.49-1.83-3.33-4.44,3.38-4.65,3.38-4.65S151.91,226.12,151.74,228.73Z" transform="translate(-109.32 -176.62)"/><path class="cls-12" d="M141.86,228.76c.68,2.53.21,4.43-2.35,5.1s-3.9-.65-4.57-3.17,1.72-5.47,1.72-5.47S141.18,226.23,141.86,228.76Z" transform="translate(-109.32 -176.62)"/><path class="cls-13" d="M141.91,218.9c-.16,2.61-1.22,4.27-3.86,4.11s-3.49-1.83-3.33-4.43,3.38-4.65,3.38-4.65S142.08,216.3,141.91,218.9Z" transform="translate(-109.32 -176.62)"/><path class="cls-14" d="M129.93,219.44c.83,2.49.47,4.42-2,5.23s-3.93-.42-4.76-2.91,1.4-5.55,1.4-5.55S129.11,217,129.93,219.44Z" transform="translate(-109.32 -176.62)"/><path class="cls-15" d="M150.35,218.9c-.17,2.61-1.22,4.27-3.87,4.11s-3.49-1.83-3.32-4.43,3.38-4.65,3.38-4.65S150.51,216.3,150.35,218.9Z" transform="translate(-109.32 -176.62)"/><path class="cls-16" d="M159,218.82c.44,2.58-.21,4.44-2.82,4.87s-3.82-1-4.26-3.58,2.23-5.28,2.23-5.28S158.52,216.25,159,218.82Z" transform="translate(-109.32 -176.62)"/><path class="cls-17" d="M160.45,232.1c.7,2.52.25,4.43-2.3,5.13s-3.9-.61-4.61-3.13,1.67-5.48,1.67-5.48S159.74,229.58,160.45,232.1Z" transform="translate(-109.32 -176.62)"/><path class="cls-18" d="M167.18,219.92c.48,2.57-.14,4.43-2.75,4.9s-3.83-.94-4.3-3.52,2.15-5.31,2.15-5.31S166.71,217.35,167.18,219.92Z" transform="translate(-109.32 -176.62)"/><path class="cls-19" d="M163.94,211.14c-.73,2.51-2.12,3.91-4.67,3.19s-3-2.52-2.28-5,4.31-3.83,4.31-3.83S164.67,208.62,163.94,211.14Z" transform="translate(-109.32 -176.62)"/><path class="cls-20" d="M140.74,202.34c-.69,2.52-2.07,3.93-4.62,3.25s-3.05-2.49-2.35-5S138,196.7,138,196.7,141.44,199.81,140.74,202.34Z" transform="translate(-109.32 -176.62)"/><path class="cls-21" d="M141.33,206.08c1.19,2.34,1.12,4.3-1.25,5.47s-4,.14-5.13-2.19.56-5.7.56-5.7S140.15,203.74,141.33,206.08Z" transform="translate(-109.32 -176.62)"/></svg>