<svg id="soy" xmlns="http://www.w3.org/2000/svg" xmlns:xlink="http://www.w3.org/1999/xlink" viewBox="0 0 73.75 73.75"><defs><style>.cls-1{fill:#d7ed9d;}.cls-1,.cls-3,.cls-4{stroke:#000;stroke-miterlimit:10;}.cls-2{fill:#738544;}.cls-3{fill:#758f00;}.cls-4{fill:#9cbf00;}.cls-5{fill:url(#Unbenannter_Verlauf_1150);}.cls-6{fill:url(#Unbenannter_Verlauf_1150-2);}.cls-7{fill:url(#Unbenannter_Verlauf_1150-3);}.cls-8{fill:url(#Unbenannter_Verlauf_1150-4);}</style><radialGradient id="Unbenannter_Verlauf_1150" cx="226.12" cy="34.03" r="4.74" gradientTransform="translate(112.09 -162.73) rotate(53.78) scale(1 0.71)" gradientUnits="userSpaceOnUse"><stop offset="0" stop-color="#feff7f"/><stop offset="0.06" stop-color="#fcfe7b"/><stop offset="0.13" stop-color="#f7f96e"/><stop offset="0.2" stop-color="#eff259"/><stop offset="0.26" stop-color="#e3e93b"/><stop offset="0.31" stop-color="#d9e021"/><stop offset="0.44" stop-color="#d1dc1d"/><stop offset="0.64" stop-color="#bacf10"/><stop offset="0.85" stop-color="#9cbf00"/></radialGradient><radialGradient id="Unbenannter_Verlauf_1150-2" cx="232.44" cy="43.9" r="5.38" gradientTransform="translate(104.28 -152.47) rotate(49.29) scale(1 0.7)" xlink:href="#Unbenannter_Verlauf_1150"/><radialGradient id="Unbenannter_Verlauf_1150-3" cx="240.4" cy="52.68" r="5.86" gradientTransform="matrix(0.79, 0.61, -0.42, 0.54, 72.09, -122.73)" xlink:href="#Unbenannter_Verlauf_1150"/><radialGradient id="Unbenannter_Verlauf_1150-4" cx="250.95" cy="58.66" r="5.79" gradientTransform="matrix(0.85, 0.53, -0.32, 0.52, 57.07, -104.62)" xlink:href="#Unbenannter_Verlauf_1150"/></defs><title>soy</title><circle class="cls-1" cx="36.88" cy="36.88" r="36.38"/><path class="cls-2" d="M221.05,32.49l20.83,46c16-.29,26.95-9.24,32.44-20.75l-3.34-8-15.87-2.87-1.56-3.16Z" transform="translate(-204.93 -5.7)"/><path class="cls-3" d="M227.84,29.75a10.19,10.19,0,0,1,5.71,2.64A10,10,0,0,1,235.94,36c3.75-1,6.62,1.78,9.27,5.54,4.43-.34,7.47,1.17,9.47,4.08,10.1-1.8,10,3.69,14.59,3.69,6.36,0-6.5,8.55-15.35,1.36-3.85,1-7.78-.26-11.83-4.71a7.34,7.34,0,0,1-3.89-.58c-2.64-1.23-4.12-2.6-6.12-6.44C231.08,37,230.18,33,227.84,29.75Z" transform="translate(-204.93 -5.7)"/><path class="cls-4" d="M221.35,22.22c-.53-5.12-3.43,16,5.6,19.35-1,4,2.63,8.7,6.85,8.84,1,5.38,4.37,7.66,9.54,7.68,5.93,6.53,11.38,7.41,16.35,2.51-3.45-4.74-7.6-7.61-13.24-6.48-.55-5.23-3.74-6.58-8.09-7.51-.57-5.28-1.59-7.13-6.28-7.72C234.73,31.42,221.92,27.74,221.35,22.22Z" transform="translate(-204.93 -5.7)"/><path class="cls-5" d="M229.51,32.7c1,2.09.6,6.06-1,6.85S224,38,223,35.88s-1.41-6.33.22-7.12S228.5,30.61,229.51,32.7Z" transform="translate(-204.93 -5.7)"/><path class="cls-6" d="M236.19,47.8c-.89,1.29-3.48.32-5.33-.95s-3.28-6-2.39-7.3,4.31.11,6.16,1.38S237.09,46.5,236.19,47.8Z" transform="translate(-204.93 -5.7)"/><path class="cls-7" d="M243.18,50c1.76,1.76,2.59,4.86,1.27,6.18s-4.95,1.14-6.71-.62-2.85-5.25-1.52-6.57S241.42,48.21,243.18,50Z" transform="translate(-204.93 -5.7)"/><path class="cls-8" d="M256.89,60.44c-.39,1.33-4,2.26-6.17,1.62s-6-3.71-5.62-5.05,5.09-2.33,7.23-1.69S257.29,59.1,256.89,60.44Z" transform="translate(-204.93 -5.7)"/></svg>